<?xml version="1.0" encoding="iso-8859-1"?>
<!-- Generator: Adobe Illustrator 19.0.0, SVG Export Plug-In . SVG Version: 6.00 Build 0)  -->
<svg xmlns="http://www.w3.org/2000/svg" xmlns:xlink="http://www.w3.org/1999/xlink" version="1.1" id="Layer_1" x="0px" y="0px" viewBox="0 0 511.26 511.26" style="enable-background:new 0 0 511.26 511.26;" xml:space="preserve">
<g>
	<g>
		<path d="M473.906,37.496C449.374,12.964,414.454,0,372.914,0C293.082,0,199.57,45.844,122.778,122.64    C64.762,180.66,23.854,248.932,7.602,314.88C-8.83,381.544,1.838,437.968,37.634,473.764    c24.528,24.532,59.452,37.496,100.988,37.496c79.836,0,173.344-45.848,250.136-122.644    C509.038,268.336,547.234,110.828,473.906,37.496z M383.102,382.964c-74.204,74.204-167.884,120.3-244.48,120.3    c-39.372,0-72.336-12.156-95.332-35.152c-33.736-33.74-43.652-87.48-27.92-151.316C31.282,252.244,71.438,185.3,128.438,128.3    C202.642,54.096,296.322,8.004,372.918,8.004c39.368,0,72.336,12.152,95.332,35.152    C538.458,113.368,500.262,265.804,383.102,382.964z"/>
	</g>
</g>
<g>
	<g>
		<path d="M282.01,229.396c-35.492-35.492-77.928-59.492-110.748-62.636c-1.188-0.104-2.364,0.312-3.208,1.156    c-0.844,0.844-1.268,2.02-1.156,3.208c3.144,32.824,27.144,75.256,62.636,110.744c35.488,35.492,77.924,59.492,110.744,62.636    c0.128,0.012,0.252,0.016,0.38,0.016c1.052,0,2.072-0.416,2.828-1.172c0.844-0.844,1.268-2.02,1.156-3.208    C341.502,307.32,317.502,264.888,282.01,229.396z M235.19,276.212c-32.428-32.424-54.876-70.524-59.688-100.848    c30.324,4.808,68.424,27.26,100.852,59.688c32.428,32.428,54.876,70.524,59.684,100.848    C305.714,331.092,267.614,308.64,235.19,276.212z"/>
	</g>
</g>
<g>
	<g>
		<path d="M164.254,347.148c-22.976-22.98-49.464-37.904-70.848-39.928c-1.192-0.092-2.36,0.312-3.204,1.156    c-0.844,0.844-1.268,2.016-1.156,3.204c2.024,21.388,16.952,47.872,39.932,70.848c22.976,22.98,49.46,37.904,70.848,39.928    c0.128,0.012,0.252,0.016,0.376,0.016c1.06,0,2.076-0.416,2.828-1.172c0.844-0.844,1.268-2.016,1.156-3.204    C202.162,396.612,187.23,370.128,164.254,347.148z M134.634,376.768c-19.544-19.54-33.264-42.328-36.876-60.84    c18.512,3.612,41.296,17.336,60.84,36.876c19.544,19.54,33.268,42.328,36.876,60.84    C176.966,410.032,154.174,396.308,134.634,376.768z"/>
	</g>
</g>
<g>
	<g>
		<path d="M382.566,128.84c-22.976-22.98-49.464-37.904-70.848-39.928c-1.192-0.092-2.36,0.312-3.204,1.156    s-1.268,2.016-1.156,3.204c2.024,21.384,16.956,47.868,39.932,70.848s49.46,37.904,70.844,39.928    c0.128,0.012,0.252,0.016,0.376,0.016c1.056,0,2.072-0.42,2.828-1.172c0.844-0.84,1.268-2.016,1.156-3.204    C420.474,178.304,405.546,151.82,382.566,128.84z M352.942,158.46c-19.544-19.54-33.268-42.328-36.876-60.84    c18.508,3.608,41.296,17.336,60.84,36.872c19.54,19.544,33.264,42.332,36.872,60.84C395.274,191.724,372.486,178,352.942,158.46z"/>
	</g>
</g>
<g>
	<g>
		<path d="M459.766,51.636C439.066,30.94,409.042,20,372.938,20c-2.208,0-4,1.792-4,4s1.792,4,4,4    c33.936,0,62.004,10.128,81.172,29.292c28.592,28.6,36.636,75.616,22.64,132.388c-15.052,61.06-53.332,124.684-107.788,179.14    c-70.588,70.588-158.848,114.44-230.336,114.44c-33.952,0-62.028-10.128-81.192-29.292    C28.842,425.376,20.798,378.36,34.79,321.584c15.052-61.06,53.332-124.68,107.792-179.14    C194.534,90.492,258.09,51.66,316.954,35.908c2.136-0.568,3.404-2.764,2.832-4.896c-0.572-2.14-2.772-3.412-4.896-2.832    c-60.184,16.1-125.048,55.688-177.96,108.604C81.45,192.26,42.418,257.212,27.026,319.668    c-14.692,59.604-5.9,109.308,24.752,139.956c20.696,20.696,50.728,31.636,86.848,31.636c73.532,0,163.96-44.748,235.992-116.784    c55.476-55.472,94.504-120.424,109.9-182.884C499.206,131.996,490.418,82.292,459.766,51.636z"/>
	</g>
</g>
<g>
</g>
<g>
</g>
<g>
</g>
<g>
</g>
<g>
</g>
<g>
</g>
<g>
</g>
<g>
</g>
<g>
</g>
<g>
</g>
<g>
</g>
<g>
</g>
<g>
</g>
<g>
</g>
<g>
</g>
</svg>
